<svg xmlns="http://www.w3.org/2000/svg" xmlns:xlink="http://www.w3.org/1999/xlink" width="500" zoomAndPan="magnify" viewBox="0 0 375 374.999991" height="500" preserveAspectRatio="xMidYMid meet" version="1.0"><defs><g/><clipPath id="52eb764181"><path d="M 84.375 71 L 290.871094 71 L 290.871094 277.910156 L 84.375 277.910156 Z M 84.375 71 " clip-rule="nonzero"/></clipPath><clipPath id="5b5257bfb3"><path d="M 187.5 277.660156 C 159.96875 277.660156 134.042969 266.945312 114.585938 247.449219 C 95.089844 227.996094 84.375 202.070312 84.375 174.535156 C 84.375 147.003906 95.089844 121.078125 114.585938 101.625 C 134.042969 82.128906 159.96875 71.410156 187.5 71.410156 C 215.03125 71.410156 240.957031 82.128906 260.414062 101.625 C 279.910156 121.121094 290.625 147.003906 290.625 174.535156 C 290.625 202.070312 279.910156 227.996094 260.414062 247.449219 C 240.957031 266.945312 215.03125 277.660156 187.5 277.660156 Z M 187.5 77.59375 C 161.617188 77.59375 137.257812 87.691406 118.957031 105.992188 C 100.65625 124.292969 90.558594 148.652344 90.558594 174.535156 C 90.558594 200.421875 100.65625 224.78125 118.957031 243.082031 C 137.257812 261.382812 161.617188 271.480469 187.5 271.480469 C 213.382812 271.480469 237.742188 261.382812 256.042969 243.082031 C 274.34375 224.78125 284.441406 200.421875 284.441406 174.535156 C 284.441406 148.652344 274.34375 124.292969 256.042969 105.992188 C 237.742188 87.691406 213.382812 77.59375 187.5 77.59375 Z M 187.5 77.59375 " clip-rule="nonzero"/></clipPath><clipPath id="c506494980"><path d="M 90.394531 77.429688 L 284.605469 77.429688 L 284.605469 271.644531 L 90.394531 271.644531 Z M 90.394531 77.429688 " clip-rule="nonzero"/></clipPath><clipPath id="fec690dd00"><path d="M 187.5 77.429688 C 133.871094 77.429688 90.394531 120.90625 90.394531 174.535156 C 90.394531 228.167969 133.871094 271.644531 187.5 271.644531 C 241.128906 271.644531 284.605469 228.167969 284.605469 174.535156 C 284.605469 120.90625 241.128906 77.429688 187.5 77.429688 " clip-rule="nonzero"/></clipPath></defs><g clip-path="url(#52eb764181)"><g clip-path="url(#5b5257bfb3)"><path fill="#000000" d="M 84.375 71.410156 L 290.460938 71.410156 L 290.460938 277.496094 L 84.375 277.496094 Z M 84.375 71.410156 " fill-opacity="1" fill-rule="nonzero"/></g></g><g clip-path="url(#c506494980)"><g clip-path="url(#fec690dd00)"><path fill="#30323d" d="M 90.394531 77.429688 L 284.605469 77.429688 L 284.605469 271.644531 L 90.394531 271.644531 Z M 90.394531 77.429688 " fill-opacity="1" fill-rule="nonzero"/></g></g><g fill="#f4ba00" fill-opacity="1"><g transform="translate(121.845678, 254.582417)"><g><path d="M 67.011719 1.753906 L 71.6875 0.195312 L 75.972656 -5.453125 L 78.503906 -10.910156 L 79.671875 -15 L 83.375 -21.234375 L 84.542969 -25.128906 L 86.492188 -29.21875 L 87.660156 -32.53125 L 89.804688 -36.039062 L 97.402344 -53.765625 L 98.765625 -58.050781 L 102.269531 -64.285156 L 119.21875 -104.414062 L 121.167969 -107.917969 L 124.476562 -114.933594 L 125.453125 -118.632812 L 129.152344 -125.453125 L 130.515625 -130.710938 L 129.542969 -134.800781 L 126.035156 -135.582031 L 121.945312 -135.972656 L 118.4375 -136.554688 L 114.738281 -136.164062 L 110.84375 -135.972656 L 103.4375 -136.75 L 99.152344 -134.21875 L 95.84375 -130.90625 L 77.726562 -88.050781 L 76.558594 -83.960938 L 74.804688 -80.648438 L 74.023438 -77.140625 L 72.078125 -73.636719 L 68.179688 -62.726562 L 66.230469 -59.21875 L 64.089844 -59.609375 L 59.21875 -70.128906 L 58.441406 -73.828125 L 55.128906 -80.453125 L 45.386719 -105.777344 L 40.324219 -116.101562 L 34.871094 -130.90625 L 31.558594 -134.21875 L 27.078125 -136.164062 L 15.972656 -136.554688 L 12.078125 -135.972656 L 4.675781 -135.972656 L 1.558594 -134.609375 L 0 -130.710938 L 6.234375 -114.152344 L 8.183594 -111.230469 L 9.15625 -107.53125 L 10.714844 -103.632812 L 12.855469 -100.710938 L 14.21875 -96.621094 L 31.753906 -57.273438 L 32.921875 -53.375 L 37.792969 -43.246094 L 39.15625 -39.15625 L 42.464844 -32.53125 L 44.609375 -29.023438 L 45.582031 -25.128906 L 53.375 -6.625 L 55.128906 -3.703125 L 59.023438 -0.390625 L 63.308594 1.167969 Z M 67.011719 1.753906 "/></g></g></g></svg>